<svg width="60" height="60" viewBox="0 0 60 60" fill="none" xmlns="http://www.w3.org/2000/svg">
<rect width="60" height="60" rx="30" fill="url(#paint0_linear_712_5631)"/>
<g clip-path="url(#clip0_712_5631)">
<path d="M43.75 38.75C43.75 39.413 43.4866 40.0489 43.0178 40.5178C42.5489 40.9866 41.913 41.25 41.25 41.25H18.75C18.087 41.25 17.4511 40.9866 16.9822 40.5178C16.5134 40.0489 16.25 39.413 16.25 38.75V25C16.25 24.337 16.5134 23.7011 16.9822 23.2322C17.4511 22.7634 18.087 22.5 18.75 22.5H23.75L26.25 18.75H33.75L36.25 22.5H41.25C41.913 22.5 42.5489 22.7634 43.0178 23.2322C43.4866 23.7011 43.75 24.337 43.75 25V38.75Z" fill="#80B3FF"/>
<path d="M30 36.25C32.7614 36.25 35 34.0114 35 31.25C35 28.4886 32.7614 26.25 30 26.25C27.2386 26.25 25 28.4886 25 31.25C25 34.0114 27.2386 36.25 30 36.25Z" fill="#80B3FF"/>
<path d="M43.75 38.75C43.75 39.413 43.4866 40.0489 43.0178 40.5178C42.5489 40.9866 41.913 41.25 41.25 41.25H18.75C18.087 41.25 17.4511 40.9866 16.9822 40.5178C16.5134 40.0489 16.25 39.413 16.25 38.75V25C16.25 24.337 16.5134 23.7011 16.9822 23.2322C17.4511 22.7634 18.087 22.5 18.75 22.5H23.75L26.25 18.75H33.75L36.25 22.5H41.25C41.913 22.5 42.5489 22.7634 43.0178 23.2322C43.4866 23.7011 43.75 24.337 43.75 25V38.75Z" stroke="white" stroke-width="4" stroke-linecap="round" stroke-linejoin="round"/>
<path d="M30 36.25C32.7614 36.25 35 34.0114 35 31.25C35 28.4886 32.7614 26.25 30 26.25C27.2386 26.25 25 28.4886 25 31.25C25 34.0114 27.2386 36.25 30 36.25Z" stroke="white" stroke-width="4" stroke-linecap="round" stroke-linejoin="round"/>
</g>
<defs>
<linearGradient id="paint0_linear_712_5631" x1="30" y1="0" x2="30" y2="60" gradientUnits="userSpaceOnUse">
<stop offset="0.153889" stop-color="#76ADFF"/>
<stop offset="0.879899" stop-color="#476899"/>
</linearGradient>
<clipPath id="clip0_712_5631">
<rect x="15" y="15" width="30" height="30" rx="5" fill="white"/>
</clipPath>
</defs>
</svg>