<svg width="23" height="24" viewBox="0 0 23 24" fill="none" xmlns="http://www.w3.org/2000/svg">
<path d="M6 22.5L8.8 8.4L7 9.1V12.5H5V7.8L10.05 5.65C10.2833 5.55 10.5292 5.49167 10.7875 5.475C11.0458 5.45833 11.2917 5.49167 11.525 5.575C11.7583 5.65833 11.9792 5.775 12.1875 5.925C12.3958 6.075 12.5667 6.26667 12.7 6.5L13.7 8.1C14.1333 8.8 14.7208 9.375 15.4625 9.825C16.2042 10.275 17.05 10.5 18 10.5V12.5C16.8333 12.5 15.7917 12.2583 14.875 11.775C13.9583 11.2917 13.175 10.675 12.525 9.925L11.9 13L14 15V22.5H12V16L9.9 14.4L8.1 22.5H6ZM12.5 5C11.95 5 11.4792 4.80417 11.0875 4.4125C10.6958 4.02083 10.5 3.55 10.5 3C10.5 2.45 10.6958 1.97917 11.0875 1.5875C11.4792 1.19583 11.95 1 12.5 1C13.05 1 13.5208 1.19583 13.9125 1.5875C14.3042 1.97917 14.5 2.45 14.5 3C14.5 3.55 14.3042 4.02083 13.9125 4.4125C13.5208 4.80417 13.05 5 12.5 5Z" fill="#1D1B20"/>
</svg>
