<svg width="20" height="20" viewBox="0 0 20 20" fill="none" xmlns="http://www.w3.org/2000/svg">
<g clip-path="url(#clip0_442_4632)">
<path d="M0.833008 10.0003C0.833008 10.0003 4.16634 16.667 9.99967 16.667C15.833 16.667 19.1663 10.0003 19.1663 10.0003C19.1663 10.0003 15.833 3.33366 9.99967 3.33366C4.16634 3.33366 0.833008 10.0003 0.833008 10.0003Z" stroke="#61646B" stroke-width="2" stroke-linecap="round" stroke-linejoin="round"/>
<path d="M9.99967 7.50033C11.3804 7.50033 12.4997 8.61961 12.4997 10.0003C12.4997 11.381 11.3804 12.5003 9.99967 12.5003C8.61896 12.5003 7.49967 11.381 7.49967 10.0003C7.49967 8.61961 8.61896 7.50033 9.99967 7.50033Z" stroke="#61646B" stroke-width="2" stroke-linecap="round" stroke-linejoin="round"/>
</g>
<defs>
<clipPath id="clip0_442_4632">
<rect width="20" height="20" fill="white" transform="matrix(1 0 0 -1 0 20)"/>
</clipPath>
</defs>
</svg>
