<svg width="24" height="29" viewBox="0 0 24 29" fill="none" xmlns="http://www.w3.org/2000/svg">
<path d="M22.5508 11.6748C22.5508 20.1331 11.6758 27.3831 11.6758 27.3831C11.6758 27.3831 0.800781 20.1331 0.800781 11.6748C0.800781 8.79057 1.94654 6.02448 3.98599 3.98502C6.02545 1.94556 8.79155 0.799805 11.6758 0.799805C14.56 0.799805 17.3261 1.94556 19.3656 3.98502C21.405 6.02448 22.5508 8.79057 22.5508 11.6748Z" stroke="#3A00E5" stroke-width="1.6" stroke-linecap="round" stroke-linejoin="round"/>
<path d="M11.6758 15.2998C13.6778 15.2998 15.3008 13.6768 15.3008 11.6748C15.3008 9.67277 13.6778 8.0498 11.6758 8.0498C9.67375 8.0498 8.05078 9.67277 8.05078 11.6748C8.05078 13.6768 9.67375 15.2998 11.6758 15.2998Z" stroke="#3A00E5" stroke-width="1.6" stroke-linecap="round" stroke-linejoin="round"/>
</svg>
