<svg width="42" height="44" viewBox="0 0 42 44" fill="none" xmlns="http://www.w3.org/2000/svg">
<path d="M34.5674 25.8449C34.5674 28.2582 33.8894 30.864 30.6286 32.1161C28.685 32.8625 25.4303 33.0268 21.6474 33.0268C18.4738 33.0268 15.1447 32.8625 13.1551 32.1161C9.81723 30.864 8.79638 28.2582 8.79638 25.8449C8.5904 22.075 8.5574 20.9406 11.954 20.2496C14.5465 19.439 18.2977 19.2726 21.6474 19.2726C24.8154 19.2726 29.1685 19.5534 31.6687 20.2496C34.7273 21.1012 34.5674 22.0098 34.5674 25.8449Z" fill="#2D936C"/>
<path d="M32.2644 25.844C32.2644 24.8359 32.2733 24.1462 32.2441 23.5792C32.2175 23.063 32.1605 22.8482 32.1317 22.7672C32.01 22.6896 31.7129 22.548 31.0228 22.3558C28.8566 21.7527 24.782 21.4667 21.6482 21.4666C18.2793 21.4666 14.8716 21.6465 12.6716 22.3344L12.5547 22.3708L12.4355 22.3944C11.678 22.5485 11.3201 22.691 11.1602 22.78C11.1457 22.7881 11.1332 22.7936 11.1242 22.7993C11.0995 22.8651 11.0431 23.0645 11.0275 23.545C11.01 24.0825 11.0443 24.7614 11.0972 25.7304L11.0995 25.7883V25.844C11.0995 26.7692 11.2963 27.6225 11.718 28.3187C12.1201 28.9822 12.7958 29.6244 13.9987 30.0756C14.6927 30.336 15.7697 30.539 17.1768 30.667C18.5504 30.7919 20.0945 30.832 21.6482 30.832C23.5154 30.832 25.1923 30.7921 26.6166 30.667C28.0708 30.5392 29.1071 30.3357 29.7678 30.0821C30.8822 29.6541 31.4358 29.0628 31.7583 28.443C32.1142 27.7586 32.2644 26.8829 32.2644 25.844ZM34.5674 25.8449C34.5674 28.2582 33.8894 30.864 30.6286 32.1161C28.685 32.8625 25.4303 33.0268 21.6474 33.0268C18.4738 33.0268 15.1447 32.8625 13.1551 32.1161C9.81723 30.864 8.79638 28.2582 8.79638 25.8449C8.5904 22.075 8.5574 20.9406 11.954 20.2496C14.5465 19.439 18.2977 19.2726 21.6474 19.2726L22.8852 19.2854C25.8747 19.3487 29.481 19.6405 31.6687 20.2496C34.7273 21.1012 34.5674 22.0098 34.5674 25.8449Z" fill="#2D936C"/>
<path d="M15.0313 39.295C15.0144 39.9007 14.4854 40.3786 13.8496 40.3626C13.2138 40.3465 12.7121 39.8425 12.7289 39.2368L12.913 32.6249C12.9299 32.0193 13.4589 31.5413 14.0947 31.5574C14.7305 31.5735 15.2322 32.0775 15.2154 32.6831L15.0313 39.295Z" fill="#2D936C"/>
<path d="M31.6173 39.1864C31.6549 39.7912 31.1707 40.3105 30.5358 40.3463C29.9009 40.3821 29.3558 39.9209 29.3182 39.3161L28.9078 32.7134C28.8702 32.1086 29.3544 31.5893 29.9893 31.5535C30.6242 31.5176 31.1693 31.9789 31.2069 32.5837L31.6173 39.1864Z" fill="#2D936C"/>
<path d="M14.5965 39.7974C15.232 39.7971 15.7485 40.2876 15.7494 40.8931C15.7501 41.4987 15.2349 41.9903 14.5992 41.9914L12.7526 41.9943H12.7481L10.798 41.9907C10.162 41.9898 9.64645 41.4986 9.64735 40.8928C9.64829 40.2872 10.1642 39.7962 10.7999 39.7966L12.7477 39.8003L14.5965 39.7974Z" fill="#2D936C"/>
<path d="M33.5763 39.806C34.2119 39.8068 34.7274 40.2983 34.727 40.9039C34.7264 41.5095 34.2101 42.0001 33.5745 42L29.7508 41.9971C29.1148 41.9966 28.5997 41.505 28.6002 40.8992C28.6007 40.2934 29.1167 39.8026 29.7527 39.8031L33.5763 39.806Z" fill="#2D936C"/>
<path d="M14.5307 39.2393C15.1656 39.2045 15.7099 39.6666 15.7465 40.2714C15.783 40.8762 15.298 41.3948 14.6631 41.4296L11.9003 41.5818C11.2659 41.6162 10.7214 41.154 10.6845 40.5497C10.6479 39.9449 11.1344 39.4247 11.7693 39.3899L14.5307 39.2393Z" fill="#2D936C"/>
<path d="M32.5946 39.299C33.229 39.3416 33.707 39.8661 33.6623 40.4704C33.6175 41.0747 33.0671 41.5301 32.4326 41.4874L29.672 41.3026C29.0382 41.2596 28.5601 40.735 28.6044 40.1312C28.6491 39.5269 29.2013 39.0701 29.8357 39.1128L32.5946 39.299Z" fill="#2D936C"/>
<path d="M10.7665 21.6371C11.102 22.1516 10.9362 22.8289 10.3962 23.1487L7.38048 24.932C7.28713 24.9872 7.20229 25.0549 7.12907 25.1329L5.92414 26.4199C5.80428 26.548 5.7184 26.7015 5.67194 26.8673L4.70713 30.3088C4.54303 30.894 3.91162 31.2424 3.29726 31.0863C2.68304 30.9301 2.31751 30.3284 2.48103 29.7433L3.44584 26.3018C3.58537 25.8039 3.84677 25.3442 4.20693 24.9597L5.40962 23.6727C5.62963 23.4378 5.88545 23.2338 6.16616 23.0677L9.17965 21.2844C9.7198 20.9648 10.4308 21.1227 10.7665 21.6371Z" fill="#2D936C"/>
<path d="M33.2704 23.0591C33.0282 22.499 33.3086 21.8569 33.8964 21.626L36.9894 20.4129C37.1527 20.3488 37.2992 20.25 37.4159 20.1237L38.1182 19.3644C38.2337 19.2395 38.3174 19.0905 38.3638 18.93L39.471 15.089C39.6394 14.5047 40.2725 14.1608 40.8858 14.3212C41.4991 14.4816 41.8601 15.0847 41.6917 15.6689L40.5845 19.5099C40.4455 19.9922 40.1924 20.4373 39.8456 20.8127L39.1428 21.5741C38.7927 21.9527 38.3553 22.2498 37.8655 22.4419L34.7748 23.6555C34.1868 23.8862 33.5127 23.6191 33.2704 23.0591Z" fill="#2D936C"/>
<path d="M4.82512 33.3563C5.13263 33.8865 4.93163 34.5536 4.37528 34.8467C3.81893 35.1395 3.11865 34.9478 2.81078 34.4182L2.43109 33.7642C2.14845 33.2769 2 32.7281 2 32.1714L2.00045 31.5158C2.00045 30.91 2.51543 30.4181 3.15134 30.418C3.7871 30.418 4.3033 30.9088 4.30369 31.5144L4.30323 32.1722C4.30324 32.3577 4.35348 32.54 4.44768 32.7024L4.82512 33.3563Z" fill="#2D936C"/>
<path d="M5.2505 30.7322L5.91148 31.7798C6.23919 32.299 6.06193 32.9728 5.51689 33.285C4.97215 33.5964 4.26589 33.4293 3.93817 32.9108L3.2758 31.8616C2.94862 31.3424 3.12557 30.6684 3.67039 30.3563C4.21535 30.0447 4.92289 30.2132 5.2505 30.7322Z" fill="#2D936C"/>
<path d="M39.1956 11.9441C38.8974 11.4092 39.11 10.7454 39.6715 10.4611C40.2329 10.1772 40.9297 10.3801 41.2282 10.9145L41.5964 11.5744C41.8705 12.0661 42.0093 12.6172 41.9995 13.1739L41.9876 13.8294C41.977 14.4351 41.4534 14.9187 40.8176 14.9087C40.1819 14.8986 39.6744 14.3996 39.6846 13.7942L39.6966 13.1365C39.6999 12.9509 39.6528 12.7679 39.5615 12.604L39.1956 11.9441Z" fill="#2D936C"/>
<path d="M38.7242 14.5611L38.0817 13.5032C37.7632 12.9789 37.9522 12.308 38.5026 12.0045C39.0528 11.7017 39.756 11.8801 40.0746 12.4037L40.7185 13.4633C41.0365 13.9876 40.8478 14.6587 40.2976 14.9621C39.7472 15.2651 39.0427 15.0853 38.7242 14.5611Z" fill="#2D936C"/>
<path d="M17.4251 8.07238C20.3703 7.55061 23.3944 7.5811 26.3274 8.16237L26.7277 8.24165C28.2631 8.54599 29.7626 8.99915 31.2014 9.59363L32.0673 9.95145C33.8925 10.7917 35.052 12.5541 35.052 14.4852V19.139C35.052 19.9943 34.466 20.7506 33.608 21.003C33.4128 21.0604 33.2095 21.0887 33.0052 21.0887H10.5335C10.3326 21.0887 10.1316 21.0632 9.9375 21.0137C8.93056 20.757 8.22626 19.8876 8.22587 18.8947V14.4252C8.22587 12.5274 9.35514 10.793 11.1408 9.95145C12.9622 9.1206 14.8909 8.52268 16.8763 8.17094L17.4251 8.07238ZM18.7251 11.5091C16.7855 11.5083 14.8544 11.7655 12.9897 12.274C12.0976 12.5177 11.4828 13.2947 11.4827 14.1788V16.1093C11.4831 16.8771 12.0595 17.5359 12.8525 17.6734C12.9508 17.6904 13.0516 17.6991 13.1516 17.6991H30.3264C30.4274 17.6991 30.529 17.6888 30.6278 17.6691C31.3073 17.5332 31.7949 16.9614 31.7951 16.3V14.3845C31.7951 13.384 31.0825 12.5112 30.0655 12.2612L29.8383 12.2055C27.9552 11.7426 26.0185 11.5082 24.0737 11.5091H18.7251Z" fill="#2D936C"/>
<path d="M13.6922 8.8927C13.9572 9.44347 13.7033 10.0946 13.1252 10.347C12.547 10.5995 11.8635 10.3576 11.5985 9.80686L10.7401 8.0227C10.4751 7.47193 10.729 6.8208 11.3071 6.56836C11.8853 6.31593 12.5688 6.55777 12.8338 7.10854L13.6922 8.8927Z" fill="#2D936C"/>
<path d="M12.6984 6.21982C12.6984 7.12862 11.925 7.86534 10.971 7.86534C10.017 7.86534 9.24362 7.12862 9.24362 6.21982C9.24362 5.31102 10.017 4.57429 10.971 4.57429C11.925 4.57429 12.6984 5.31102 12.6984 6.21982Z" fill="#2D936C"/>
<path d="M11.5468 6.21982C11.5468 5.91689 11.289 5.67131 10.971 5.67131C10.653 5.67131 10.3952 5.91689 10.3952 6.21982C10.3952 6.52275 10.653 6.76833 10.971 6.76833V7.86534C10.017 7.86534 9.24362 7.12862 9.24362 6.21982C9.24362 5.31102 10.017 4.57429 10.971 4.57429C11.925 4.57429 12.6984 5.31102 12.6984 6.21982C12.6984 7.12862 11.925 7.86534 10.971 7.86534V6.76833C11.289 6.76833 11.5468 6.52275 11.5468 6.21982Z" fill="#2D936C"/>
<path d="M7.70216 5.14904C7.97318 5.30751 8.05766 5.6438 7.89131 5.90198L7.86132 5.94883C7.41226 6.64578 7.72768 7.56059 8.52242 7.86973C8.81651 7.98441 8.95875 8.30522 8.8386 8.58553C8.71835 8.86594 8.38081 8.99922 8.08643 8.88471C6.63413 8.31957 6.06109 6.6498 6.88178 5.37609L6.91177 5.32923C7.07812 5.07105 7.43114 4.99057 7.70216 5.14904Z" fill="#2D936C"/>
<path d="M20.1839 14.5641C20.4858 14.4703 20.8114 14.6282 20.9103 14.9158L20.9471 15.0235C21.2516 15.9084 22.5823 15.86 22.8149 14.9557C22.8905 14.6615 23.2024 14.4817 23.5113 14.5538C23.8201 14.6259 24.0088 14.923 23.9332 15.2172C23.4249 17.1922 20.5194 17.2981 19.8538 15.3659L19.8147 15.2561C19.7162 14.9684 19.882 14.6583 20.1839 14.5641Z" fill="#2D936C"/>
<path d="M12.9727 3.13324C12.8525 3.4137 12.9931 3.73248 13.2875 3.84698L13.3408 3.86788C14.1355 4.17697 14.449 5.09238 14 5.78936C13.834 6.0475 13.9185 6.38634 14.1894 6.5447C14.4604 6.7031 14.8153 6.62044 14.9817 6.36228C15.802 5.08844 15.2277 3.41909 13.7752 2.85422L13.7219 2.83332C13.4275 2.71882 13.0929 2.85278 12.9727 3.13324Z" fill="#2D936C"/>
<path d="M11.7699 3.12438C11.6065 3.38426 11.2544 3.46837 10.9816 3.3127L10.9321 3.28464C10.1956 2.86442 9.2388 3.17476 8.92289 3.93514C8.80569 4.21652 8.47048 4.35548 8.17495 4.24405C7.87931 4.13255 7.73575 3.81246 7.85277 3.5308C8.43029 2.1413 10.1768 1.57739 11.5227 2.34538L11.5722 2.37344C11.845 2.5291 11.9333 2.8645 11.7699 3.12438Z" fill="#2D936C"/>
<path d="M15.7483 14.5203C15.7483 15.1261 15.2327 15.6173 14.5967 15.6173C13.9607 15.6173 13.4451 15.1261 13.4451 14.5203C13.4451 13.9144 13.9607 13.4233 14.5967 13.4233C15.2327 13.4233 15.7483 13.9144 15.7483 14.5203Z" fill="#2D936C"/>
<path d="M29.7517 14.5203C29.7517 15.1261 29.2362 15.6173 28.6002 15.6173C27.9642 15.6173 27.4486 15.1261 27.4486 14.5203C27.4486 13.9144 27.9642 13.4233 28.6002 13.4233C29.2362 13.4233 29.7517 13.9144 29.7517 14.5203Z" fill="#2D936C"/>
</svg>
