<svg width="89" height="89" viewBox="0 0 89 89" fill="none" xmlns="http://www.w3.org/2000/svg">
<path d="M40.0504 8.90039C44.9593 8.90039 48.9504 11.8902 48.9504 15.5754C48.9504 17.0216 48.3385 18.3566 47.2816 19.4552C46.3638 20.4148 45.6129 21.5829 45.6129 22.9179C45.6129 25.0038 47.3095 26.7004 49.3954 26.7004H55.6254C59.3105 26.7004 62.3004 29.6902 62.3004 33.3754V39.6054C62.3004 41.6913 63.997 43.3879 66.0829 43.3879C67.404 43.3879 68.586 42.637 69.5455 41.7191C70.6441 40.6762 71.9791 40.0504 73.4254 40.0504C77.1105 40.0504 80.1004 44.0415 80.1004 48.9504C80.1004 53.8593 77.1105 57.8504 73.4254 57.8504C71.9791 57.8504 70.6302 57.2385 69.5455 56.1816C68.586 55.2638 67.4179 54.5129 66.0829 54.5129C63.997 54.5129 62.3004 56.2095 62.3004 58.2954V73.4254C62.3004 77.1105 59.3105 80.1004 55.6254 80.1004H47.7266C45.9466 80.1004 44.5004 78.6541 44.5004 76.8741C44.5004 75.5948 45.307 74.4684 46.336 73.7035C47.9491 72.4937 48.9504 70.8249 48.9504 68.9754C48.9504 65.2902 44.9593 62.3004 40.0504 62.3004C35.1415 62.3004 31.1504 65.2902 31.1504 68.9754C31.1504 70.8249 32.1516 72.4937 33.7648 73.7035C34.7938 74.4684 35.6004 75.5809 35.6004 76.8741C35.6004 78.6541 34.1541 80.1004 32.3741 80.1004H15.5754C11.8902 80.1004 8.90039 77.1105 8.90039 73.4254V56.6266C8.90039 54.8466 10.3466 53.4004 12.1266 53.4004C13.406 53.4004 14.5324 54.207 15.2973 55.236C16.5071 56.8491 18.1759 57.8504 20.0254 57.8504C23.7105 57.8504 26.7004 53.8593 26.7004 48.9504C26.7004 44.0415 23.7105 40.0504 20.0254 40.0504C18.1759 40.0504 16.5071 41.0516 15.2973 42.6648C14.5324 43.6938 13.4199 44.5004 12.1266 44.5004C10.3466 44.5004 8.90039 43.0541 8.90039 41.2741V33.3754C8.90039 29.6902 11.8902 26.7004 15.5754 26.7004H30.7054C32.7913 26.7004 34.4879 25.0038 34.4879 22.9179C34.4879 21.5968 33.737 20.4148 32.8191 19.4552C31.7762 18.3566 31.1504 17.0216 31.1504 15.5754C31.1504 11.8902 35.1415 8.90039 40.0504 8.90039Z" fill="white"/>
</svg>
