<svg width="44" height="44" viewBox="0 0 44 44" fill="none" xmlns="http://www.w3.org/2000/svg">
<path d="M8 18.7846C9.10468 18.7847 10 19.6127 10 20.6345V28.0409C10 28.827 10.3354 29.5809 10.9353 30.1358L13.4933 32.4982C13.9082 32.882 14.5597 32.9426 15.0446 32.6421C15.6886 32.2441 15.7773 31.4039 15.2277 30.8955C14.8627 30.558 14.073 29.8272 12.8683 28.713C12.2436 28.1351 12.244 27.1961 12.8683 26.618C13.4932 26.04 14.509 26.04 15.1339 26.618C16.3385 27.7322 17.1284 28.4631 17.4933 28.8006L18.7589 29.9695C19.8083 30.9402 20.397 32.2583 20.3973 33.6311V37.2815C20.3968 38.5064 19.3222 39.5 17.9978 39.5H14.6629C13.8133 39.4998 12.9993 39.1893 12.3996 38.6346L7.40402 34.0154C6.50458 33.1832 6 32.0541 6 30.8753V20.6345C6 19.6126 6.89517 18.7846 8 18.7846ZM35.9955 18.7846C37.1003 18.7847 37.9955 19.6126 37.9955 20.6345L38 30.8753C38 32.0541 37.4954 33.1832 36.596 34.0154L31.6004 38.6346C31.0007 39.1893 30.1867 39.4998 29.3371 39.5H26.0022C24.6778 39.5 23.6032 38.5064 23.6027 37.2815V33.6311C23.603 32.2583 24.1917 30.9402 25.2411 29.9695L26.5067 28.8006C26.8716 28.4631 27.6615 27.7322 28.8661 26.618C29.491 26.04 30.5068 26.04 31.1317 26.618C31.756 27.1961 31.7564 28.1351 31.1317 28.713C29.927 29.8272 29.1373 30.558 28.7723 30.8955C28.2227 31.3993 28.3114 32.2441 28.9554 32.6421C29.4403 32.9426 30.0918 32.882 30.5067 32.4982L33.0603 30.1358C33.6601 29.5809 33.9955 28.8269 33.9955 28.0409V20.6345C33.9955 19.6126 34.8907 18.7846 35.9955 18.7846ZM18.5714 4.5C19.1365 4.5 19.6021 4.91277 19.6942 5.4553C19.7129 5.45387 19.7322 5.45225 19.7522 5.45081C19.9993 5.43304 20.3476 5.41486 20.7634 5.41484C21.5879 5.41484 22.7144 5.48356 23.8616 5.77224C25.0019 6.0593 26.2462 6.58478 27.2143 7.55921C28.2121 8.56403 28.8325 9.96188 28.8326 11.7963C28.8325 13.6306 28.2121 15.0285 27.2143 16.0333C26.9035 16.3461 26.5604 16.6063 26.2054 16.8335C26.5245 17.0016 26.8314 17.1959 27.1161 17.4224C28.1359 18.234 28.8326 19.4242 28.8326 21.0301C28.8323 22.6357 28.136 23.8263 27.1161 24.6378C26.1442 25.4109 24.9162 25.8153 23.808 26.0359C22.6837 26.2595 21.576 26.3123 20.7634 26.3123C20.3545 26.3123 20.0124 26.2991 19.7701 26.2854C19.7436 26.2839 19.7184 26.28 19.6942 26.2786C19.6005 26.8193 19.1351 27.2317 18.5714 27.2317C17.9406 27.2317 17.4291 26.716 17.4286 26.0808V5.65086C17.4286 5.01526 17.9402 4.5 18.5714 4.5ZM22.1451 18.1102C21.6348 18.1599 21.1635 18.1777 20.7634 18.1777C20.3476 18.1777 19.9993 18.1617 19.7522 18.144C19.7393 18.143 19.7267 18.1404 19.7143 18.1395V23.9747C19.7625 23.9782 19.824 23.984 19.8973 23.9881C20.1037 23.9999 20.4036 24.0106 20.7634 24.0106C21.4898 24.0106 22.4362 23.9636 23.3638 23.7791C24.3073 23.5914 25.1319 23.2815 25.6987 22.8305C26.2174 22.4177 26.5467 21.8726 26.5469 21.0301C26.5469 20.187 26.2177 19.6403 25.6987 19.2274C25.1319 18.7765 24.3072 18.4687 23.3638 18.2811C22.9544 18.1996 22.5412 18.1464 22.1451 18.1102ZM19.9152 7.74578C19.8313 7.75181 19.7635 7.75658 19.7143 7.76151V15.7748C19.7322 15.7737 19.7509 15.7736 19.7701 15.7726C20.0124 15.7588 20.3545 15.7456 20.7634 15.7456C21.157 15.7456 21.6201 15.7568 22.1205 15.795C22.507 15.7506 22.9099 15.6884 23.308 15.5882C24.219 15.3589 25.0274 14.9802 25.5982 14.4059C26.1394 13.861 26.5468 13.0613 26.5469 11.7963C26.5468 10.5313 26.1393 9.73156 25.5982 9.1866C25.0274 8.61229 24.219 8.23361 23.308 8.00427C22.4036 7.77665 21.4777 7.71656 20.7634 7.71656C20.4101 7.71657 20.1168 7.73127 19.9152 7.74578Z" fill="#2D936C"/>
</svg>
