<svg width="32" height="32" viewBox="0 0 32 32" fill="none" xmlns="http://www.w3.org/2000/svg">
<path d="M8 7.9998C8.885 7.9998 9.6 7.2848 9.6 6.3998C9.6 5.5148 8.885 4.7998 8 4.7998H4.8C2.15 4.7998 0 6.9498 0 9.5998V22.3998C0 25.0498 2.15 27.1998 4.8 27.1998H8C8.885 27.1998 9.6 26.4848 9.6 25.5998C9.6 24.7148 8.885 23.9998 8 23.9998H4.8C3.915 23.9998 3.2 23.2848 3.2 22.3998V9.5998C3.2 8.7148 3.915 7.9998 4.8 7.9998H8ZM25.13 17.1298C25.755 16.5048 25.755 15.4898 25.13 14.8648L18.73 8.4648C18.105 7.8398 17.09 7.8398 16.465 8.4648C15.84 9.0898 15.84 10.1048 16.465 10.7298L20.135 14.3998H9.6C8.715 14.3998 8 15.1148 8 15.9998C8 16.8848 8.715 17.5998 9.6 17.5998H20.135L16.465 21.2698C15.84 21.8948 15.84 22.9098 16.465 23.5348C17.09 24.1598 18.105 24.1598 18.73 23.5348L25.13 17.1348V17.1298Z" fill="#E78F8E"/>
</svg>
