<svg width="40" height="30" viewBox="0 0 40 30" fill="none" xmlns="http://www.w3.org/2000/svg">
<path d="M20 0C23.5875 0 26.5 3.01293 26.5 6.72414C26.5 10.4353 23.5875 13.4483 20 13.4483C16.4125 13.4483 13.5 10.4353 13.5 6.72414C13.5 3.01293 16.4125 0 20 0ZM6 4.65517C8.4875 4.65517 10.5 6.73707 10.5 9.31034C10.5 11.8836 8.4875 13.9655 6 13.9655C3.5125 13.9655 1.5 11.8836 1.5 9.31034C1.5 6.73707 3.5125 4.65517 6 4.65517ZM0 25.8621C0 21.2909 3.58125 17.5862 8 17.5862C8.8 17.5862 9.575 17.7091 10.3062 17.9353C8.25 20.3147 7 23.4569 7 26.8966V27.931C7 28.6681 7.15 29.3664 7.41875 30H2C0.89375 30 0 29.0754 0 27.931V25.8621ZM32.5812 30C32.85 29.3664 33 28.6681 33 27.931V26.8966C33 23.4569 31.75 20.3147 29.6938 17.9353C30.425 17.7091 31.2 17.5862 32 17.5862C36.4188 17.5862 40 21.2909 40 25.8621V27.931C40 29.0754 39.1063 30 38 30H32.5812ZM29.5 9.31034C29.5 6.73707 31.5125 4.65517 34 4.65517C36.4875 4.65517 38.5 6.73707 38.5 9.31034C38.5 11.8836 36.4875 13.9655 34 13.9655C31.5125 13.9655 29.5 11.8836 29.5 9.31034ZM10 26.8966C10 21.181 14.475 16.5517 20 16.5517C25.525 16.5517 30 21.181 30 26.8966V27.931C30 29.0754 29.1063 30 28 30H12C10.8938 30 10 29.0754 10 27.931V26.8966Z" fill="#3A00E5"/>
</svg>
